<mxfile host="app.diagrams.net" modified="2023-11-16T17:09:08.476Z" agent="Mozilla/5.0 (Windows NT 10.0; Win64; x64; rv:109.0) Gecko/20100101 Firefox/119.0" etag="cX5U95y7nvSyIUOV3DxL" version="22.1.2" type="device">
  <diagram name="Pagina-1" id="GgXEJ81RuVTFlW8kEIqq">
    <mxGraphModel dx="797" dy="414" grid="1" gridSize="10" guides="1" tooltips="1" connect="1" arrows="1" fold="1" page="1" pageScale="1" pageWidth="827" pageHeight="1169" math="0" shadow="0">
      <root>
        <mxCell id="0" />
        <mxCell id="1" parent="0" />
        <mxCell id="ebww6AsElN2ZjdVp5nvj-1" value="" style="ellipse;whiteSpace=wrap;html=1;" vertex="1" parent="1">
          <mxGeometry x="350" y="220" width="180" height="55" as="geometry" />
        </mxCell>
        <mxCell id="ebww6AsElN2ZjdVp5nvj-3" value="&lt;font style=&quot;font-size: 20px;&quot; face=&quot;Times New Roman&quot;&gt;Start&lt;/font&gt;" style="ellipse;whiteSpace=wrap;html=1;" vertex="1" parent="1">
          <mxGeometry x="360" y="232.5" width="50" height="30" as="geometry" />
        </mxCell>
        <mxCell id="ebww6AsElN2ZjdVp5nvj-4" value="&lt;font style=&quot;font-size: 20px;&quot; face=&quot;Times New Roman&quot;&gt;End&lt;/font&gt;" style="ellipse;whiteSpace=wrap;html=1;" vertex="1" parent="1">
          <mxGeometry x="470" y="232.5" width="50" height="30" as="geometry" />
        </mxCell>
        <mxCell id="ebww6AsElN2ZjdVp5nvj-5" value="" style="endArrow=classic;html=1;rounded=0;exitX=0;exitY=1;exitDx=0;exitDy=0;" edge="1" parent="1" source="ebww6AsElN2ZjdVp5nvj-1">
          <mxGeometry width="50" height="50" relative="1" as="geometry">
            <mxPoint x="210.00038969320815" y="339.99873734153005" as="sourcePoint" />
            <mxPoint x="320" y="300" as="targetPoint" />
          </mxGeometry>
        </mxCell>
        <mxCell id="ebww6AsElN2ZjdVp5nvj-7" value="" style="endArrow=classic;html=1;rounded=0;exitX=0.483;exitY=0.998;exitDx=0;exitDy=0;exitPerimeter=0;" edge="1" parent="1" source="ebww6AsElN2ZjdVp5nvj-1">
          <mxGeometry width="50" height="50" relative="1" as="geometry">
            <mxPoint x="456" y="290" as="sourcePoint" />
            <mxPoint x="437" y="300" as="targetPoint" />
          </mxGeometry>
        </mxCell>
        <mxCell id="ebww6AsElN2ZjdVp5nvj-8" value="" style="endArrow=classic;html=1;rounded=0;exitX=1;exitY=1;exitDx=0;exitDy=0;" edge="1" parent="1" source="ebww6AsElN2ZjdVp5nvj-1">
          <mxGeometry width="50" height="50" relative="1" as="geometry">
            <mxPoint x="447" y="275" as="sourcePoint" />
            <mxPoint x="560" y="300" as="targetPoint" />
          </mxGeometry>
        </mxCell>
        <mxCell id="ebww6AsElN2ZjdVp5nvj-9" value="&lt;font style=&quot;font-size: 18px;&quot; face=&quot;Times New Roman&quot;&gt;Add action&lt;br style=&quot;font-size: 18px;&quot;&gt;&lt;/font&gt;" style="text;html=1;strokeColor=none;fillColor=none;align=center;verticalAlign=middle;whiteSpace=wrap;rounded=0;fontSize=18;" vertex="1" parent="1">
          <mxGeometry x="270" y="296" width="110" height="30" as="geometry" />
        </mxCell>
        <mxCell id="ebww6AsElN2ZjdVp5nvj-10" value="&lt;font style=&quot;font-size: 18px;&quot; face=&quot;Times New Roman&quot;&gt;Add ordering&lt;br style=&quot;font-size: 18px;&quot;&gt;&lt;/font&gt;" style="text;html=1;strokeColor=none;fillColor=none;align=center;verticalAlign=middle;whiteSpace=wrap;rounded=0;fontSize=18;" vertex="1" parent="1">
          <mxGeometry x="385" y="296" width="110" height="30" as="geometry" />
        </mxCell>
        <mxCell id="ebww6AsElN2ZjdVp5nvj-11" value="&lt;font style=&quot;font-size: 18px;&quot; face=&quot;Times New Roman&quot;&gt;Add causal link&lt;br style=&quot;font-size: 18px;&quot;&gt;&lt;/font&gt;" style="text;html=1;strokeColor=none;fillColor=none;align=center;verticalAlign=middle;whiteSpace=wrap;rounded=0;fontSize=18;" vertex="1" parent="1">
          <mxGeometry x="500" y="296" width="120" height="30" as="geometry" />
        </mxCell>
        <mxCell id="ebww6AsElN2ZjdVp5nvj-13" value="" style="endArrow=none;dashed=1;html=1;dashPattern=1 3;strokeWidth=2;rounded=0;" edge="1" parent="1">
          <mxGeometry width="50" height="50" relative="1" as="geometry">
            <mxPoint x="438" y="341" as="sourcePoint" />
            <mxPoint x="438.13" y="321" as="targetPoint" />
          </mxGeometry>
        </mxCell>
        <mxCell id="ebww6AsElN2ZjdVp5nvj-14" value="" style="ellipse;whiteSpace=wrap;html=1;" vertex="1" parent="1">
          <mxGeometry x="330" y="350" width="220" height="70" as="geometry" />
        </mxCell>
        <mxCell id="ebww6AsElN2ZjdVp5nvj-15" value="&lt;font style=&quot;font-size: 20px;&quot; face=&quot;Times New Roman&quot;&gt;Start&lt;/font&gt;" style="ellipse;whiteSpace=wrap;html=1;" vertex="1" parent="1">
          <mxGeometry x="340" y="370" width="50" height="30" as="geometry" />
        </mxCell>
        <mxCell id="ebww6AsElN2ZjdVp5nvj-16" value="&lt;font style=&quot;font-size: 20px;&quot; face=&quot;Times New Roman&quot;&gt;End&lt;/font&gt;" style="ellipse;whiteSpace=wrap;html=1;" vertex="1" parent="1">
          <mxGeometry x="490" y="370" width="50" height="30" as="geometry" />
        </mxCell>
        <mxCell id="ebww6AsElN2ZjdVp5nvj-17" value="" style="ellipse;whiteSpace=wrap;html=1;aspect=fixed;" vertex="1" parent="1">
          <mxGeometry x="410" y="360" width="20" height="20" as="geometry" />
        </mxCell>
        <mxCell id="ebww6AsElN2ZjdVp5nvj-18" value="" style="ellipse;whiteSpace=wrap;html=1;aspect=fixed;" vertex="1" parent="1">
          <mxGeometry x="450" y="360" width="20" height="20" as="geometry" />
        </mxCell>
        <mxCell id="ebww6AsElN2ZjdVp5nvj-19" value="" style="ellipse;whiteSpace=wrap;html=1;aspect=fixed;" vertex="1" parent="1">
          <mxGeometry x="430" y="390" width="20" height="20" as="geometry" />
        </mxCell>
        <mxCell id="ebww6AsElN2ZjdVp5nvj-20" value="" style="endArrow=classic;html=1;rounded=0;exitX=1;exitY=0;exitDx=0;exitDy=0;entryX=0;entryY=0.5;entryDx=0;entryDy=0;" edge="1" parent="1" source="ebww6AsElN2ZjdVp5nvj-15" target="ebww6AsElN2ZjdVp5nvj-17">
          <mxGeometry width="50" height="50" relative="1" as="geometry">
            <mxPoint x="400" y="420" as="sourcePoint" />
            <mxPoint x="450" y="370" as="targetPoint" />
          </mxGeometry>
        </mxCell>
        <mxCell id="ebww6AsElN2ZjdVp5nvj-21" value="" style="endArrow=classic;html=1;rounded=0;exitX=1;exitY=0.5;exitDx=0;exitDy=0;entryX=0;entryY=0.5;entryDx=0;entryDy=0;" edge="1" parent="1" source="ebww6AsElN2ZjdVp5nvj-17" target="ebww6AsElN2ZjdVp5nvj-18">
          <mxGeometry width="50" height="50" relative="1" as="geometry">
            <mxPoint x="393" y="384" as="sourcePoint" />
            <mxPoint x="420" y="380" as="targetPoint" />
          </mxGeometry>
        </mxCell>
        <mxCell id="ebww6AsElN2ZjdVp5nvj-22" value="" style="endArrow=classic;html=1;rounded=0;exitX=1;exitY=0.5;exitDx=0;exitDy=0;entryX=0;entryY=0;entryDx=0;entryDy=0;" edge="1" parent="1" source="ebww6AsElN2ZjdVp5nvj-18" target="ebww6AsElN2ZjdVp5nvj-16">
          <mxGeometry width="50" height="50" relative="1" as="geometry">
            <mxPoint x="440" y="380" as="sourcePoint" />
            <mxPoint x="460" y="380" as="targetPoint" />
          </mxGeometry>
        </mxCell>
        <mxCell id="ebww6AsElN2ZjdVp5nvj-23" value="" style="endArrow=classic;html=1;rounded=0;exitX=1;exitY=0.5;exitDx=0;exitDy=0;entryX=0;entryY=1;entryDx=0;entryDy=0;" edge="1" parent="1" source="ebww6AsElN2ZjdVp5nvj-19" target="ebww6AsElN2ZjdVp5nvj-16">
          <mxGeometry width="50" height="50" relative="1" as="geometry">
            <mxPoint x="480" y="380" as="sourcePoint" />
            <mxPoint x="507" y="384" as="targetPoint" />
          </mxGeometry>
        </mxCell>
        <mxCell id="ebww6AsElN2ZjdVp5nvj-24" value="" style="endArrow=classic;html=1;rounded=0;exitX=1;exitY=1;exitDx=0;exitDy=0;entryX=0;entryY=0.5;entryDx=0;entryDy=0;" edge="1" parent="1" source="ebww6AsElN2ZjdVp5nvj-15" target="ebww6AsElN2ZjdVp5nvj-19">
          <mxGeometry width="50" height="50" relative="1" as="geometry">
            <mxPoint x="460" y="410" as="sourcePoint" />
            <mxPoint x="507" y="406" as="targetPoint" />
          </mxGeometry>
        </mxCell>
        <mxCell id="ebww6AsElN2ZjdVp5nvj-25" value="" style="endArrow=none;dashed=1;html=1;dashPattern=1 3;strokeWidth=2;rounded=0;entryX=0.5;entryY=1;entryDx=0;entryDy=0;" edge="1" parent="1" target="ebww6AsElN2ZjdVp5nvj-11">
          <mxGeometry width="50" height="50" relative="1" as="geometry">
            <mxPoint x="547" y="342" as="sourcePoint" />
            <mxPoint x="450" y="340" as="targetPoint" />
          </mxGeometry>
        </mxCell>
        <mxCell id="ebww6AsElN2ZjdVp5nvj-26" value="" style="endArrow=none;dashed=1;html=1;dashPattern=1 3;strokeWidth=2;rounded=0;" edge="1" parent="1">
          <mxGeometry width="50" height="50" relative="1" as="geometry">
            <mxPoint x="324" y="326" as="sourcePoint" />
            <mxPoint x="340" y="342" as="targetPoint" />
          </mxGeometry>
        </mxCell>
      </root>
    </mxGraphModel>
  </diagram>
</mxfile>
